PathFileType	4	(X/Y/Z)	Walk2.trc
DataRate	CameraRate	NumFrames	NumMarkers	Units	OrigDataRate	OrigDataStartFrame	OrigNumFrames
200.000000	200.000000	4	56	mm	200.000000	531	568
Frame#	Times		RASI		RACR1		RUA1		RFA1		RTH2		C7		LFA1		RTH3		RElbow		LElbowM		RCAR		RTH4		RLFC		RTB3		RMT1		RTB1		RWRU		RMT5		LACR1		RTH1		RTB4		RTB2		LTH3		LElbow		RMMAL		LWRU		RWRR		LPSI		CLAV		LTB1		T10		LBHD		RPSI		LTB4		LTB3		LLFC		LTH2		LTH4		LTB2		RBHD		LWRR		LTH1		LFHD		LMT1		RBack		LMMAL		LCAL		LLMAL		RLMAL		RToe		LMT5		RElbowM		LToe		LUA1		LCAR		RCAL
			X1	Y1	Z1	X2	Y2	Z2	X3	Y3	Z3	X4	Y4	Z4	X5	Y5	Z5	X6	Y6	Z6	X7	Y7	Z7	X8	Y8	Z8	X9	Y9	Z9	X10	Y10	Z10	X11	Y11	Z11	X12	Y12	Z12	X13	Y13	Z13	X14	Y14	Z14	X15	Y15	Z15	X16	Y16	Z16	X17	Y17	Z17	X18	Y18	Z18	X19	Y19	Z19	X20	Y20	Z20	X21	Y21	Z21	X22	Y22	Z22	X23	Y23	Z23	X24	Y24	Z24	X25	Y25	Z25	X26	Y26	Z26	X27	Y27	Z27	X28	Y28	Z28	X29	Y29	Z29	X30	Y30	Z30	X31	Y31	Z31	X32	Y32	Z32	X33	Y33	Z33	X34	Y34	Z34	X35	Y35	Z35	X36	Y36	Z36	X37	Y37	Z37	X38	Y38	Z38	X39	Y39	Z39	X40	Y40	Z40	X41	Y41	Z41	X42	Y42	Z42	X43	Y43	Z43	X44	Y44	Z44	X45	Y45	Z45	X46	Y46	Z46	X47	Y47	Z47	X48	Y48	Z48	X49	Y49	Z49	X50	Y50	Z50	X51	Y51	Z51	X52	Y52	Z52	X53	Y53	Z53	X54	Y54	Z54	X55	Y55	Z55	X56	Y56	Z56

531	2.655	1217.2	959.57	442.07	1189.4	1404.6	459.29	1174.3	1215.6	545.41	1226.7	959.36	602.38	1233.6	661.73	445.15	1116.2	1453.5	320.73	1142.9	1005.3	-5.5348	1168.6	561.45	458.7	1147.6	1086.6	582.63	1029.4	1131.4	108.42	1311.7	796.33	604.5	1168.2	651.72	478.14	1167.2	458.28	442.09	1151	177.87	350.24	1228.6	36.358	304.07	1187.5	364.53	356.68	1254.3	832.14	597.51	1201.9	28.976	394.06	1143.3	1449	141.63	1164.8	748.98	489.61	1172.3	273.04	355.37	1163.2	269.49	427.6	1286.8	586.29	116.39	1045.7	1134.1	27.788	1103.7	95.437	302.78	1137.1	886.27	-1.8415	1318.3	851.7	557.51	1037.8	970.46	236.27	1249.9	1376	294.85	1322.1	380.54	191.89	1026.5	1142.5	296.27	1141.4	1599.4	258.63	1035.4	976.4	341.2	1259.4	312.3	200.74	1199.9	241.89	208.17	1314.6	482.92	132.8	1315.4	698.75	128.84	1247.9	667.17	105.76	1230.3	329.95	137.25	1151.1	1588.8	397.91	1209	907.46	34.608	1208.8	756.69	104.09	1291.6	1622.4	297.72	1188.3	68.378	252.82	1051.5	1354.7	416.79	1116.2	176.36	271.63	1012.6	162.86	240.72	1071.8	179.55	189.73	1081.7	79.819	390.21	1282.5	27.354	324.85	1161.7	74.621	175.06	1123	1053.7	491.98	1227.3	62.594	230.24	1086.5	1259.5	44.179	1215	854.04	-12.13	1027.3	33.648	350.92
532	2.66	1222.8	959.57	442.45	1195.4	1404.9	459.16	1181.1	1216.3	545.95	1237.6	961.25	602.93	1237	661.27	445.41	1122.2	1453.6	320.55	1146.1	1005.2	-5.7049	1171.3	562.48	460.51	1156	1087.2	583.66	1034	1131.2	108.92	1325.6	799.96	604.76	1171.6	651.5	478.1	1168.5	458.2	442.39	1151.1	177.74	350.53	1228.4	35.755	303.4	1188.4	364.44	356.82	1267.3	835.11	597.59	1201.9	28.417	393.34	1149	1448.7	141.55	1169	749.04	489.86	1173.1	272.93	355.48	1164	269.27	427.85	1295.2	587.56	116.51	1049.7	1133.8	28.699	1103.3	95.644	303.32	1140.4	885.68	-1.4726	1331.1	855.43	557.85	1043.9	970.61	236.13	1255.7	1376	294.76	1333.8	382.04	192.27	1032.6	1142.5	295.91	1147.3	1599.1	258.09	1041.4	976.29	340.82	1272.8	312.11	201.17	1215.6	240.08	208.73	1324.4	484.22	132.9	1323	700.25	128.68	1255.8	668.01	105.62	1243.7	328.85	137.6	1156.8	1589	397.27	1212.5	906.87	33.821	1215.7	757.35	103.92	1294.7	1622.8	299.31	1209.2	66.323	253.04	1057.5	1354.7	416.8	1133.7	172.12	272.32	1030.9	155.64	241.82	1089.2	174.25	190.52	1081.8	79.826	390.19	1282.3	26.196	323.75	1182.2	71.749	175.27	1132	1053.6	493.09	1248.4	61.905	230.14	1090.5	1259.5	44.638	1217	853.54	-12.573	1027.3	33.838	350.95
533	2.665	1228.5	959.16	442.79	1201.1	1405.3	459.2	1187.8	1216.8	546.64	1248.3	962.91	603.61	1240.4	660.78	445.73	1128	1453.7	320.14	1149.5	1004.9	-5.9032	1173.8	563.07	462.07	1164.2	1087.4	584.77	1038.6	1131	109.4	1339.6	803.64	604.86	1175	651.22	477.98	1169.9	458.04	442.72	1151.3	177.6	350.66	1228.5	35.656	303.16	1189.5	364.21	356.95	1280.2	837.64	597.99	1201.4	27.086	392.32	1154.6	1448.3	141.51	1173.4	748.89	489.84	1173.9	272.86	355.51	1164.6	269.03	428.09	1303.7	588.69	116.47	1053.7	1133.8	29.013	1104.8	96.27	302.83	1143.3	885.39	-1.3148	1343.9	859.44	558.29	1050	970.71	235.8	1261.9	1376	294.71	1345.5	383.47	192.55	1038.8	1142.3	295.84	1153.3	1598.8	257.47	1047.3	976.25	340.45	1286.7	311.72	201.69	1231.3	238.18	209.29	1335.2	485.94	132.5	1330.5	701.68	128.65	1263.7	668.89	105.48	1257.1	327.64	137.81	1162.5	1589.2	396.33	1215.8	906.08	32.899	1222.7	757.8	103.68	1297.7	1623	300.94	1230.6	64.43	253.79	1063.5	1354.6	416.97	1150.2	167.49	273.53	1049	148.05	242.84	1108	168.79	191.24	1081.9	79.917	390.24	1282.4	25.707	322.99	1203	69.468	175.28	1140.7	1053.6	494.28	1269.8	61.274	229.9	1095	1259.2	44.89	1218.7	852.94	-12.849	1027.3	33.976	350.96
534	2.67	1234.5	958.89	442.95	1206.9	1405.5	459.02	1194.5	1217.3	547.27	1259.6	964.8	604.1	1243.9	660.25	446.03	1134.1	1453.4	319.95	1152.8	1004.3	-6.0054	1176.3	562.94	462.66	1172.3	1087.6	585.7	1043.1	1130.8	110.12	1353.3	807.21	604.9	1177.6	653.07	477.06	1171.7	457.84	442.84	1151.7	177.53	350.67	1228.7	35.845	303.34	1190.5	363.98	357.13	1293.4	839.61	597.8	1202.8	26.463	390.11	1160.4	1447.8	141.38	1177.9	748.89	489.79	1174.7	272.74	355.58	1165.4	268.82	428.27	1312.1	589.65	116.51	1058	1133.6	29.974	1105.5	96.311	302.56	1146.1	885.03	-1.291	1356.4	863.37	558.59	1056.2	970.62	235.51	1268	1375.9	294.61	1357.2	384.93	192.71	1045	1142.1	295.83	1159.2	1598.4	256.96	1053.2	976.03	340.13	1300.4	311.52	201.98	1247.2	236.3	209.77	1343.3	486.68	132.84	1338.3	702.87	128.41	1271.3	669.52	105.29	1270.2	326.51	138.22	1168.4	1589.2	395.49	1218.9	905.09	31.824	1229.7	758.16	103.53	1300.6	1623.2	302.59	1252	62.801	254.09	1069.7	1354.5	416.93	1167.8	163.17	274.32	1067.8	140.97	243.76	1125.1	163.33	192.21	1082.1	80.025	390.25	1282.5	25.754	322.75	1224	67.217	175.49	1149.4	1053.5	495.28	1290.9	60.606	229.75	1099.4	1258.9	45.218	1220.6	852.25	-13.267	1027.3	34.14	350.96
